<?xml version="1.0" standalone="no"?><!DOCTYPE svg PUBLIC "-//W3C//DTD SVG 1.1//EN" "http://www.w3.org/Graphics/SVG/1.1/DTD/svg11.dtd"><svg t="1497979454180" class="icon" style="" viewBox="0 0 1024 1024" version="1.1" xmlns="http://www.w3.org/2000/svg" p-id="1840" xmlns:xlink="http://www.w3.org/1999/xlink" width="200" height="200"><defs><style type="text/css"></style></defs><path d="M511.55 512.085m-448.216 0a448.216 448.216 0 1 0 896.432 0 448.216 448.216 0 1 0-896.432 0Z" fill="#334455" p-id="1841" class="selected"></path><path d="M762.264 711.578L564.179 513.492c-14.438-14.438-34.752-19.142-53.217-14.525L397.611 387.01l-42.543-82.619-82.792-42.632-40.16 40.16 42.632 82.792 82.792 42.632 0.109-0.109 112.975 111.585c-4.92 18.649-0.301 39.288 14.32 53.909l198.085 198.086c21.88 21.88 57.355 21.88 79.234 0 21.881-21.881 21.881-57.356 0.001-79.236z" fill="#231F20" p-id="1842"></path><path d="M546.556 585.804l-225.54-222.766 41.093-39.106 225.54 222.765z" fill="#4F5D73" p-id="1843"></path><path d="M762.264 762.799c-21.88 21.88-57.354 21.88-79.234 0L484.944 564.713c-21.88-21.88-21.88-57.354 0-79.234 21.88-21.88 57.354-21.88 79.234 0l198.086 198.086c21.88 21.88 21.88 57.354 0 79.234z" fill="#F5CF87" p-id="1844"></path><path d="M809.949 320.933l-90.701 90.701c-21.88 21.88-57.355 21.88-79.234 0-21.88-21.88-21.88-57.355 0-79.234l90.701-90.701c-15.843-6.217-33.036-9.749-51.084-9.749-77.357 0-140.068 62.71-140.068 140.068 0 18.048 3.532 35.241 9.749 51.084l-154.76 154.76c-15.843-6.217-33.036-9.749-51.084-9.749-77.357 0-140.068 62.711-140.068 140.068 0 18.048 3.532 35.241 9.749 51.084l90.701-90.701c21.88-21.88 57.355-21.88 79.234 0 21.88 21.88 21.88 57.355 0 79.234l-90.701 90.701c15.843 6.217 33.036 9.749 51.084 9.749 77.357 0 140.068-62.71 140.068-140.068 0-18.048-3.532-35.241-9.749-51.084l154.76-154.76c15.843 6.217 33.036 9.749 51.084 9.749 77.357 0 140.068-62.711 140.068-140.068 0.001-18.048-3.532-35.241-9.749-51.084z" fill="#231F20" p-id="1845"></path><path d="M387.048 557.347L556.805 387.59l79.233 79.233L466.281 636.58z" fill="#FFFFFF" p-id="1846"></path><path d="M357.539 399.329l-82.791-42.632-42.631-82.791 40.16-40.16 82.791 42.631 42.631 82.792z" fill="#4F5D73" p-id="1847"></path><path d="M719.248 383.621c-21.88 21.88-57.355 21.88-79.234 0-21.88-21.88-21.88-57.355 0-79.234l90.701-90.701c-15.843-6.217-33.036-9.749-51.084-9.749-77.357 0-140.068 62.71-140.068 140.068 0 77.357 62.711 140.068 140.068 140.068s140.068-62.711 140.068-140.068c0-18.048-3.532-35.241-9.749-51.084l-90.702 90.7zM303.852 640.549c21.88-21.88 57.355-21.88 79.234 0 21.88 21.88 21.88 57.355 0 79.234l-90.701 90.701c15.843 6.217 33.036 9.749 51.084 9.749 77.357 0 140.068-62.71 140.068-140.068 0-77.357-62.711-140.068-140.068-140.068s-140.068 62.711-140.068 140.068c0 18.048 3.532 35.241 9.749 51.084l90.702-90.7z" fill="#FFFFFF" p-id="1848"></path></svg>